PathFileType  4	(X/Y/Z) C:\Users\wagnerel85475\Documents\Thesis\opencap-core\Data\3375ffbc-daeb-4a43-b4f7-ac9899cd4c71\MarkerData\PreAugmentation
DataRate	CameraRate	NumFrames	NumMarkers	Units	OrigDataRate	OrigDataStartFrame	OrigNumFrames
60.0	60.0	9	20	m	60.0	206	823
Frame#	Time	Neck			RShoulder			RElbow			RWrist			LShoulder			LElbow			LWrist			midHip			RHip			RKnee			RAnkle			LHip			LKnee			LAnkle			LBigToe			LSmallToe			LHeel			RBigToe			RSmallToe			RHeel			
		X1	Y1	Z1	X2	Y2	Z2	X3	Y3	Z3	X4	Y4	Z4	X5	Y5	Z5	X6	Y6	Z6	X7	Y7	Z7	X8	Y8	Z8	X9	Y9	Z9	X10	Y10	Z10	X11	Y11	Z11	X12	Y12	Z12	X13	Y13	Z13	X14	Y14	Z14	X15	Y15	Z15	X16	Y16	Z16	X17	Y17	Z17	X18	Y18	Z18	X19	Y19	Z19	X20	Y20	Z20	

206	3.4166667	-0.9407600	1.3585600	-0.0375000	-0.9471600	1.3599900	0.1440800	-1.0203800	1.0374500	0.2012900	-0.9821900	0.7531600	0.2723800	-0.9436300	1.3588000	-0.2169100	-1.0020800	1.0764900	-0.3344400	-0.7780300	0.8881400	-0.2546900	-0.9083400	0.7942500	-0.0267400	-0.9282700	0.7922300	0.0806200	-1.0041800	0.2960200	0.1053600	-1.0935200	-0.1922400	0.1598500	-0.9255900	0.7882600	-0.1396000	-1.0258600	0.2826500	-0.1503200	-1.0216900	-0.1879800	-0.2153900	-0.8074200	-0.2498400	-0.2476400	-0.8684600	-0.2372300	-0.2810200	-1.1183900	-0.2536500	-0.1844900	-0.8262700	-0.2538100	0.1933700	-0.8880500	-0.2389900	0.2420000	-1.1124500	-0.2515800	0.1442600
207	3.4333333	-0.9402400	1.3584300	-0.0374200	-0.9459400	1.3598600	0.1436200	-1.0204100	1.0374400	0.2012900	-0.9820700	0.7531400	0.2724200	-0.9489900	1.3584700	-0.2184200	-1.0038800	1.0663100	-0.3336300	-0.8016300	0.8749800	-0.2657600	-0.9083300	0.7943300	-0.0267800	-0.9231200	0.7927200	0.0787600	-1.0040500	0.2942300	0.1055300	-1.0934900	-0.1924100	0.1598400	-0.9323800	0.7876200	-0.1423700	-1.0259600	0.2822900	-0.1502700	-1.0218300	-0.1886000	-0.2153000	-0.8073000	-0.2497800	-0.2476800	-0.8683600	-0.2370300	-0.2810600	-1.1190600	-0.2556700	-0.1842800	-0.8252900	-0.2535000	0.1929500	-0.8895600	-0.2393900	0.2417100	-1.1111000	-0.2512500	0.1445200
208	3.4500000	-0.9396400	1.3584300	-0.0373100	-0.9413400	1.3598300	0.1418700	-1.0202800	1.0374700	0.2013100	-0.9820900	0.7531300	0.2724500	-0.9501700	1.3585400	-0.2187800	-1.0087200	1.0586200	-0.3325700	-0.8289300	0.8606600	-0.2770800	-0.9082700	0.7943900	-0.0267700	-0.9178400	0.7933000	0.0768900	-1.0039100	0.2929600	0.1056600	-1.0934700	-0.1925700	0.1598200	-0.9318100	0.7875600	-0.1413200	-1.0259100	0.2826700	-0.1503000	-1.0221400	-0.1897400	-0.2151600	-0.8070800	-0.2500000	-0.2477400	-0.8684200	-0.2378400	-0.2809800	-1.1197300	-0.2577100	-0.1841300	-0.8258100	-0.2536200	0.1931300	-0.8891400	-0.2392700	0.2417900	-1.1117800	-0.2514500	0.1443800
209	3.4666667	-0.9407700	1.3583400	-0.0376300	-0.9347300	1.3596400	0.1393900	-1.0201600	1.0374500	0.2013300	-0.9824600	0.7529100	0.2724000	-0.9492400	1.3585900	-0.2185500	-1.0163000	1.0551000	-0.3308900	-0.8524600	0.8427400	-0.2851500	-0.9083500	0.7940700	-0.0267100	-0.9182400	0.7933300	0.0771100	-1.0038000	0.2925500	0.1057300	-1.0934900	-0.1925700	0.1598200	-0.9321500	0.7877900	-0.1391000	-1.0260300	0.2822300	-0.1502600	-1.0223500	-0.1903400	-0.2151000	-0.8071300	-0.2500200	-0.2477500	-0.8686100	-0.2388300	-0.2808500	-1.1199500	-0.2584400	-0.1841100	-0.8261700	-0.2537300	0.1932700	-0.8886900	-0.2391300	0.2418700	-1.1124200	-0.2514900	0.1442800
210	3.4833333	-0.9456600	1.3582700	-0.0389000	-0.9298100	1.3594600	0.1377600	-1.0200900	1.0374600	0.2013400	-0.9828300	0.7534100	0.2722800	-0.9498600	1.3585500	-0.2188000	-1.0223800	1.0539800	-0.3284800	-0.8674500	0.8238500	-0.2893400	-0.9086100	0.7929800	-0.0266500	-0.9226900	0.7929000	0.0787500	-1.0037500	0.2925400	0.1057600	-1.0934800	-0.1925700	0.1598200	-0.9389900	0.7870100	-0.1388200	-1.0262100	0.2811700	-0.1501800	-1.0222200	-0.1897400	-0.2151800	-0.8072400	-0.2501700	-0.2477200	-0.8688100	-0.2398500	-0.2807100	-1.1200300	-0.2580600	-0.1841200	-0.8261200	-0.2538100	0.1932800	-0.8885900	-0.2390700	0.2418800	-1.1125200	-0.2515700	0.1442600
211	3.5000000	-0.9528000	1.3582300	-0.0407200	-0.9282100	1.3593500	0.1374500	-1.0200500	1.0374800	0.2013400	-0.9811200	0.7548700	0.2723800	-0.9543000	1.3584300	-0.2201300	-1.0219100	1.0528200	-0.3256500	-0.8761800	0.8074800	-0.2914600	-0.9088600	0.7923900	-0.0266600	-0.9232400	0.7928500	0.0788900	-1.0037600	0.2929700	0.1057300	-1.0934900	-0.1925500	0.1598200	-0.9483100	0.7862400	-0.1405500	-1.0263000	0.2807900	-0.1501200	-1.0219600	-0.1887100	-0.2153200	-0.8071900	-0.2503200	-0.2477000	-0.8691300	-0.2409400	-0.2805300	-1.1201200	-0.2575900	-0.1841200	-0.8260400	-0.2537600	0.1932500	-0.8885800	-0.2390800	0.2418600	-1.1124800	-0.2515600	0.1442800
212	3.5166667	-0.9578300	1.3581800	-0.0420000	-0.9300000	1.3593300	0.1373200	-1.0200300	1.0375100	0.2013300	-0.9754200	0.7574200	0.2731700	-0.9611100	1.3585200	-0.2221000	-1.0175300	1.0508400	-0.3228100	-0.8825400	0.7953300	-0.2932300	-0.9088100	0.7929300	-0.0267200	-0.9181300	0.7933200	0.0769500	-1.0038400	0.2942300	0.1056200	-1.0934800	-0.1925800	0.1598200	-0.9524700	0.7859600	-0.1417900	-1.0262100	0.2808200	-0.1501200	-1.0218300	-0.1882600	-0.2153900	-0.8071000	-0.2498800	-0.2477100	-0.8693600	-0.2414300	-0.2804300	-1.1200700	-0.2576700	-0.1841600	-0.8260500	-0.2537700	0.1932200	-0.8885800	-0.2390900	0.2418500	-1.1124500	-0.2515800	0.1443000
213	3.5333333	-0.9591700	1.3581500	-0.0423600	-0.9357700	1.3593400	0.1362700	-1.0199700	1.0375400	0.2013200	-0.9676300	0.7594400	0.2744200	-0.9673700	1.3585600	-0.2238900	-1.0176200	1.0478800	-0.3201200	-0.8884600	0.7864900	-0.2952600	-0.9085700	0.7939800	-0.0267500	-0.9130900	0.7938100	0.0750800	-1.0040400	0.2960800	0.1054600	-1.0934700	-0.1926100	0.1598300	-0.9484300	0.7862600	-0.1408700	-1.0261100	0.2809000	-0.1501500	-1.0218100	-0.1882800	-0.2154100	-0.8071700	-0.2496400	-0.2477000	-0.8692000	-0.2403900	-0.2805800	-1.1201500	-0.2575100	-0.1841700	-0.8260100	-0.2537600	0.1932200	-0.8885500	-0.2391200	0.2418400	-1.1124300	-0.2517200	0.1443200
214	3.5500000	-0.9586900	1.3581100	-0.0422500	-0.9432000	1.3593900	0.1346700	-1.0198700	1.0375000	0.2013100	-0.9623300	0.7602000	0.2753300	-0.9731100	1.3582300	-0.2255400	-1.0225400	1.0452300	-0.3175100	-0.8978900	0.7790400	-0.2984100	-0.9083200	0.7944600	-0.0267500	-0.9115000	0.7939300	0.0745100	-1.0042100	0.2972800	0.1053500	-1.0934700	-0.1926100	0.1598300	-0.9402900	0.7869400	-0.1386900	-1.0260700	0.2809200	-0.1501600	-1.0217900	-0.1883300	-0.2154300	-0.8087100	-0.2501700	-0.2472400	-0.8688600	-0.2384500	-0.2808800	-1.1202000	-0.2573000	-0.1841700	-0.8255800	-0.2536700	0.1933100	-0.8885400	-0.2391200	0.2418400	-1.1124300	-0.2518500	0.1443400
